<svg width="300" height="439" viewBox="0 0 300 439" fill="none" xmlns="http://www.w3.org/2000/svg">
<path d="M72.9142 107.391C72.8888 107.421 72.8618 107.448 72.8356 107.479C71.9911 108.472 71.2252 109.527 70.5371 110.631C68.9443 109.515 67.2645 108.494 65.5292 107.605C52.8125 101.079 37.842 109.132 37.2117 109.479L33.4213 111.557L34.564 116.169C34.7543 116.937 39.3693 135.049 52.0843 141.575C57.3373 144.274 62.8499 145.729 67.7569 145.729C67.9449 145.729 68.1283 145.719 68.3147 145.714L69.9545 161.474C70.0686 164.677 70.6688 168 71.6867 171.233V242.962C71.6867 249.79 72.3903 255.752 73.832 261.171C75.6405 268.049 78.6488 274.045 82.9709 279.468L99.7068 344.617L95.6813 427.285H92.6715C89.9291 427.285 87.5372 429.693 87.4556 432.816C87.37 436.047 89.644 438.696 92.4619 438.696H121.3L129.511 354.941V345.757L161.595 427.285H158.579C155.835 427.285 153.444 429.693 153.362 432.816C153.276 436.047 155.55 438.696 158.368 438.696H195.673L171.529 376.209L171.292 375.656C164.696 361.915 163.491 345.41 163.271 339.674C167.077 334.421 171.505 326.534 173.971 316.082C181.537 318.408 192.907 321.084 210.635 321.084C216.603 321.084 222.538 320.462 228.373 319.258C230.821 330.082 235.311 338.373 241.743 343.919C247.026 348.478 250.129 355.175 250.321 362.386L235.003 427.285H230.233C227.49 427.285 225.099 429.693 225.017 432.816C224.932 436.047 227.206 438.696 230.023 438.696H256.974L269.553 389.557V427.283H266.83C264.087 427.283 261.696 429.69 261.613 432.813C261.528 436.045 263.802 438.694 266.62 438.694H295.102V382.254L299.771 337.525C300.88 328.763 297.711 324.887 295.72 323.353C290.788 319.556 288.316 313.004 288.174 303.345L294.04 282.94L295.624 273.381C296.685 266.982 296.772 260.529 295.953 254.261V224.807C295.953 208.466 289.047 192.763 277.004 181.722C274.717 179.627 271.508 179.218 268.831 180.679C266.299 182.061 264.726 184.843 264.726 187.938V209.407C258.885 206.766 252.59 205.36 246.124 205.36H230.234C227.492 205.36 225.1 207.767 225.018 210.89C224.933 214.121 227.207 216.771 230.024 216.771H245.531C257.116 216.771 268.31 222.125 276.071 231.924C284.577 242.666 288.121 257.135 285.78 271.264L284.319 280.093L278.15 301.544V302.455C278.15 316.327 282.084 326.466 289.847 332.6C289.959 333.015 290.091 334.082 289.85 335.947L285.121 381.242L285.085 381.577V427.282H279.571V355.668C279.571 353.91 279.459 352.162 279.24 350.464L279.18 350.008C277.894 340.675 273.509 332.267 266.828 326.333C262.18 322.211 258.498 314.439 256.183 303.859L256.117 303.573C255.35 300.02 254.744 296.171 254.314 292.121C254.085 290.006 253.913 287.84 253.802 285.661C253.666 283.174 252.461 280.934 250.578 279.668C248.698 278.404 246.394 278.284 244.412 279.352C235.732 284.049 226.542 286.43 217.094 286.43C201.561 286.43 189.044 283.837 178.809 278.495C176.866 277.491 174.92 276.37 173.014 275.157C170.627 273.645 167.722 273.951 165.614 275.936C163.513 277.916 162.707 281.099 163.558 284.041C165.015 289.089 166.527 297.08 165.457 306.526C165.403 307.028 165.334 307.532 165.268 308.002L165.247 308.161C163.461 320.556 157.951 329.282 154.828 333.379C153.787 334.743 153.214 336.495 153.214 338.314L153.216 338.429C153.315 344.093 154.275 363.853 162.414 380.941L180.32 427.285H172.575L128.437 315.13C127.533 310.999 126.046 307.005 124.05 303.308L111.13 268.421C109.848 264.96 107.875 261.899 105.419 259.391C101.18 255.062 98.7513 248.87 98.7513 242.381V231.829C98.7513 228.705 96.6376 225.981 93.8967 225.886C91.0603 225.791 88.7339 228.381 88.7339 231.59V241.436C88.7339 251.499 92.2215 261.323 98.836 267.993C100.155 269.324 101.216 271.006 101.901 272.856L106.605 285.557C99.6752 281.118 94.705 276.99 91.0703 272.66C87.3916 268.29 84.8927 263.46 83.4255 257.881C82.2689 253.534 81.7064 248.654 81.7064 242.963V187.304C85.3928 190.505 89.5484 192.258 93.7426 192.258H99.9796C107.047 192.258 113.263 187.545 117.571 180.912L120.984 191.193C126.096 206.588 139.038 216.772 153.485 216.772H201.663C204.406 216.772 206.797 214.365 206.88 211.242C206.965 208.011 204.691 205.361 201.874 205.361H153.485C143.265 205.361 133.969 198.045 130.354 187.155L125.224 171.707C124.131 168.416 123.654 164.903 123.768 161.386L123.77 161.334L125.333 145.717C125.511 145.721 125.686 145.731 125.866 145.731C130.772 145.731 136.285 144.276 141.537 141.578C154.251 135.052 158.875 116.941 159.066 116.174L160.212 111.559L156.417 109.48C155.787 109.134 140.809 101.084 128.093 107.608C126.335 108.511 124.641 109.543 123.044 110.666C122.375 109.587 121.631 108.559 120.813 107.587C161.476 96.0083 192.095 55.2243 194.415 6.01451C194.569 2.74831 192.28 0.00175584 189.41 0.00175584C186.769 0.00175584 184.554 2.33488 184.415 5.33862C182.895 37.9198 167.546 66.3869 144.952 83.256C152.138 72.0968 156.395 58.3439 156.395 43.4744V30.6677C156.395 27.5173 154.153 24.9639 151.388 24.9639C148.623 24.9639 146.378 27.5173 146.378 30.6677V43.4718C146.378 64.0977 136.531 82.1412 121.919 91.8599C123.158 88.3611 123.847 84.5445 123.847 80.5463V61.6162C123.847 58.4668 121.605 55.9124 118.84 55.9124C116.075 55.9124 113.829 58.4659 113.829 61.6162V80.0828C113.829 90.3335 106.845 99.0752 97.8528 99.4623C88.3995 99.8696 80.5952 91.227 80.5952 80.5472V61.6162C80.5952 58.4668 78.3537 55.9124 75.5881 55.9124C72.8233 55.9124 70.5771 58.4659 70.5771 61.6162V80.5472C70.5771 84.5454 71.266 88.362 72.5051 91.8608C57.8929 82.1421 48.0474 64.0977 48.0474 43.4726V30.6677C48.0474 27.5173 45.8058 24.9639 43.0402 24.9639C40.2754 24.9639 38.0292 27.5173 38.0292 30.6677V43.4718C38.0292 58.3412 42.2858 72.0942 49.4721 83.2542C26.8769 66.3852 11.5272 37.9181 10.0077 5.33686C9.86742 2.334 7.65282 0 5.01287 0C2.14252 0 -0.146062 2.7448 0.00728058 6.011C2.31281 54.9416 32.596 95.5483 72.9142 107.391ZM56.2015 131.173C51.0348 128.521 47.706 122.361 45.8952 117.964C49.9907 116.595 56.2485 115.358 61.4182 118.011C63.2791 118.964 65.0445 120.097 66.6419 121.35C66.386 123.07 66.2797 124.833 66.3282 126.622L67.1281 134.309C63.7769 134.193 59.9572 133.102 56.2015 131.173ZM285.935 227.62C285.595 227.12 285.262 226.612 284.905 226.122C281.92 222.02 278.495 218.463 274.743 215.508V194.777C281.912 203.177 285.935 213.845 285.935 224.808V227.62ZM248.037 312.813C250.976 322.927 255.211 330.495 260.671 335.336C265.05 339.226 268.007 344.612 269.089 350.604L249.461 427.286H245.376L260.347 363.853V363.101C260.347 352.015 255.772 341.71 247.79 334.823C243.254 330.912 240.013 324.804 238.134 316.66C241.844 315.446 245.131 314.12 248.037 312.813ZM217.092 297.842C226.417 297.842 235.516 295.845 244.206 291.899C244.256 292.437 244.312 292.974 244.369 293.506C244.668 296.315 245.054 299.038 245.506 301.672C242.385 303.117 238.807 304.612 234.668 305.926C226.873 308.413 218.788 309.674 210.636 309.674C193.438 309.674 182.692 306.994 175.671 304.781C176.019 299.553 175.785 294.246 174.97 289.044C186.46 294.963 200.245 297.842 217.092 297.842ZM103.513 296.652L106.269 298.647C108.729 300.425 110.93 302.58 112.809 305.05C113.378 305.8 113.904 306.583 114.408 307.381L118.916 318.837C119.294 320.802 119.493 322.686 119.493 324.437V354.306L112.339 427.285H105.715L109.804 343.292L96.6515 292.092C98.7536 293.599 101.029 295.112 103.513 296.652ZM126.923 121.4C128.525 120.135 130.311 118.985 132.208 118.01C137.371 115.358 143.627 116.594 147.722 117.961C145.901 122.364 142.559 128.535 137.418 131.174C133.657 133.106 129.825 134.198 126.472 134.31L127.205 126.984L127.236 126.485C127.275 124.761 127.167 123.06 126.923 121.4ZM99.978 180.846H93.7411C90.534 180.846 87.1365 178.449 84.3702 174.261C85.6463 167.771 90.7351 162.903 96.8118 162.903C102.922 162.903 108.037 167.825 109.277 174.37C106.757 178.153 103.431 180.846 99.978 180.846ZM80.0281 115.422C82.5162 112.498 85.8559 110.887 89.4305 110.887H104.131C107.693 110.887 111.023 112.488 113.509 115.394C115.948 118.245 117.263 121.989 117.226 125.961L113.801 160.183C109.627 154.855 103.559 151.491 96.811 151.491C90.0963 151.491 84.0528 154.821 79.8809 160.104L76.3355 126.038C76.2801 122.052 77.5869 118.291 80.0281 115.422Z" fill="white"/>
</svg>
